<?xml version="1.0" encoding="utf-8"?>
<!-- Generator: Adobe Illustrator 26.0.3, SVG Export Plug-In . SVG Version: 6.00 Build 0)  -->
<svg version="1.1" id="Camada_1" xmlns="http://www.w3.org/2000/svg" xmlns:xlink="http://www.w3.org/1999/xlink" x="0px" y="0px"
	 viewBox="0 0 868.956 1024" enable-background="new 0 0 868.956 1024" xml:space="preserve">
<g>
	<g>
		<rect x="316.045" y="786.853" fill="#617C8D" width="79.027" height="79.027"/>
		<rect x="157.991" y="786.853" fill="#617C8D" width="79.027" height="79.027"/>
		<rect x="316.045" y="632.305" fill="#617C8D" width="79.027" height="79.027"/>
		<rect x="157.991" y="632.305" fill="#617C8D" width="79.027" height="79.027"/>
		<rect x="316.045" y="474.251" fill="#617C8D" width="79.027" height="79.027"/>
		<rect x="157.991" y="474.251" fill="#617C8D" width="79.027" height="79.027"/>
		<path fill="#617C8D" d="M474.148,474.213v391.609h237.105V474.213H474.148z M632.175,786.875h-79.079V553.292h79.079V786.875z"/>
		<path fill="#617C8D" d="M157.18,158.1v237.105h554.073V158.1H157.18z M632.175,316.126H236.259v-78.948h395.916V316.126z"/>
		<polygon fill="#617C8D" points="868.956,0 868.956,944.986 790.193,944.986 790.193,79.216 79.218,79.216 79.218,0 		"/>
	</g>
	<polygon fill="#617C8D" points="790.193,944.986 790.193,1024.05 0,1024.05 0,944.986 0.152,944.986 0.152,79.216 79.218,79.216 
		79.218,944.986 	"/>
</g>
</svg>
