<?xml version="1.0" encoding="utf-8"?>
<!-- Generator: Adobe Illustrator 26.0.3, SVG Export Plug-In . SVG Version: 6.00 Build 0)  -->
<svg version="1.1" id="Camada_1" xmlns="http://www.w3.org/2000/svg" xmlns:xlink="http://www.w3.org/1999/xlink" x="0px" y="0px"
	 viewBox="0 0 1658.28 292.016" enable-background="new 0 0 1658.28 292.016" xml:space="preserve">
<g>
	<g>
		<g>
			<path fill="#0F0F11" d="M284.714,44.877h28.065v159.301h159.042v28.065H284.714V44.877z"/>
			<path fill="#0F0F11" d="M513.901,32.143v28.065h-28.067V32.143H513.901z M485.834,81.517h28.067v150.726h-28.067V81.517z"/>
			<path fill="#0F0F11" d="M766.751,115.303v116.941h-27.808V115.303c0-3.119-2.598-5.72-5.976-5.72h-59.512
				c-3.117,0-5.717,2.601-5.717,5.72v116.941h-28.067V115.303c0-3.119-2.598-5.72-5.717-5.72h-59.771
				c-3.117,0-5.717,2.601-5.717,5.72v116.941h-28.067V81.517h192.566C751.677,81.517,766.751,96.591,766.751,115.303z"/>
			<path fill="#0F0F11" d="M913.297,81.52h-85.749c-18.729,0-33.791,15.061-33.791,33.791v83.158
				c0,18.705,15.062,33.766,33.791,33.766h85.749c18.705,0,33.791-15.061,33.791-33.766v-83.158
				C947.088,96.582,932.001,81.52,913.297,81.52z M919.018,198.468c0,3.105-2.592,5.721-5.722,5.721h-85.749
				c-3.13,0-5.721-2.616-5.721-5.721v-83.158c0-3.129,2.591-5.721,5.721-5.721h85.749c3.13,0,5.722,2.592,5.722,5.721V198.468z"/>
			<path fill="#0F0F11" d="M1123.775,115.303v116.941h-28.067V115.303c0-3.119-2.598-5.72-5.717-5.72h-85.758
				c-3.117,0-5.717,2.601-5.717,5.72v116.941h-28.067V81.517h119.542C1108.703,81.517,1123.775,96.591,1123.775,115.303z"/>
			<path fill="#0F0F11" d="M1267.466,81.52h-85.748c-18.73,0-33.791,15.061-33.791,33.791v83.158
				c0,18.705,15.061,33.766,33.791,33.766h91.47v25.991c0,3.129-2.592,5.721-5.722,5.721h-93.035v28.069h93.035
				c18.705,0,33.791-15.086,33.791-33.79V115.311C1301.257,96.582,1286.171,81.52,1267.466,81.52z M1273.187,198.468
				c0,3.105-2.592,5.721-5.722,5.721h-85.748c-3.13,0-5.722-2.616-5.722-5.721v-83.158c0-3.129,2.592-5.721,5.722-5.721h85.748
				c3.13,0,5.722,2.592,5.722,5.721V198.468z"/>
			<path fill="#0F0F11" d="M1479.248,115.303v55.612h-125.257v27.547c0,3.116,2.598,5.717,5.717,5.717h119.54v28.065h-119.54
				c-18.711,0-33.784-15.074-33.784-33.782v-83.159c0-18.711,15.072-33.785,33.784-33.785h85.758
				C1464.175,81.517,1479.248,96.591,1479.248,115.303z M1451.182,142.846v-27.543c0-3.119-2.599-5.72-5.717-5.72h-85.758
				c-3.119,0-5.717,2.601-5.717,5.72v27.543H1451.182z"/>
			<path fill="#0F0F11" d="M1658.28,121.019h-28.067v-5.717c0-3.119-2.598-5.72-5.717-5.72h-85.758c-3.117,0-5.717,2.601-5.717,5.72
				v21.827c0,3.119,2.599,5.717,5.717,5.717h85.758c18.711,0,33.783,15.074,33.783,33.785v21.83
				c0,18.708-15.072,33.782-33.783,33.782h-85.758c-18.709,0-33.782-15.074-33.782-33.782v-5.72h28.065v5.72
				c0,3.116,2.599,5.717,5.717,5.717h85.758c3.119,0,5.717-2.601,5.717-5.717v-21.83c0-3.119-2.598-5.717-5.717-5.717h-85.758
				c-18.709,0-33.782-15.074-33.782-33.785v-21.827c0-18.711,15.072-33.785,33.782-33.785h85.758
				c18.711,0,33.783,15.074,33.783,33.785V121.019z"/>
		</g>
	</g>
	<g>
		<polygon fill="#0F0F11" points="142.152,232.155 142.152,277.121 0,277.121 0,44.966 44.965,44.966 44.965,232.155 		"/>
		<polygon fill="#0F0F11" points="187.117,0 187.117,232.155 142.152,232.155 142.152,44.966 44.965,44.966 44.965,0 		"/>
	</g>
</g>
</svg>
