<?xml version="1.0" encoding="utf-8"?>
<!-- Generator: Adobe Illustrator 26.0.3, SVG Export Plug-In . SVG Version: 6.00 Build 0)  -->
<svg version="1.1" id="Camada_1" xmlns="http://www.w3.org/2000/svg" xmlns:xlink="http://www.w3.org/1999/xlink" x="0px" y="0px"
	 viewBox="0 0 868.807 1024" enable-background="new 0 0 868.807 1024" xml:space="preserve">
<g>
	<g>
		<polygon fill="#617C8D" points="790.074,944.963 790.074,1024 -0.148,1024 -0.148,944.963 0,944.963 0,79.038 79.041,79.038 
			79.041,944.963 		"/>
		<polygon fill="#617C8D" points="868.807,0 868.807,944.963 790.074,944.963 790.074,79.038 79.041,79.038 79.041,0 		"/>
	</g>
	<polygon fill="#617C8D" points="711.894,474.157 711.894,786.824 474.001,786.824 474.001,865.775 394.92,865.775 394.92,786.824 
		157.81,786.824 157.81,707.874 632.813,707.874 632.813,553.107 157.81,553.107 157.81,551.541 157.026,551.541 157.026,237.045 
		394.528,237.045 394.528,158.096 473.609,158.096 473.609,237.045 711.111,237.045 711.111,315.996 236.107,315.996 
		236.107,474.157 	"/>
</g>
</svg>
