<?xml version="1.0" encoding="utf-8"?>
<!-- Generator: Adobe Illustrator 26.0.3, SVG Export Plug-In . SVG Version: 6.00 Build 0)  -->
<svg version="1.1" id="Camada_1" xmlns="http://www.w3.org/2000/svg" xmlns:xlink="http://www.w3.org/1999/xlink" x="0px" y="0px"
	 viewBox="0 0 868.804 1024" enable-background="new 0 0 868.804 1024" xml:space="preserve">
<g>
	<polygon fill="#617C8D" points="790.041,944.986 790.041,1024.05 -0.152,1024.05 -0.152,944.986 0,944.986 0,79.216 79.066,79.216 
		79.066,944.986 	"/>
	<rect x="315.893" y="786.853" fill="#617C8D" width="395.209" height="79.027"/>
	<rect x="157.839" y="786.853" fill="#617C8D" width="79.027" height="79.027"/>
	<rect x="315.893" y="632.305" fill="#617C8D" width="395.209" height="79.027"/>
	<rect x="157.839" y="632.305" fill="#617C8D" width="79.027" height="79.027"/>
	<rect x="315.893" y="474.251" fill="#617C8D" width="395.209" height="79.027"/>
	<rect x="157.839" y="474.251" fill="#617C8D" width="79.027" height="79.027"/>
	<path fill="#617C8D" d="M711.101,237.099H315.893v-78.948h395.209V237.099z M713.488,396.757H318.28v-78.948h395.209V396.757z"/>
	<polygon fill="#617C8D" points="868.804,0 868.804,944.986 790.041,944.986 790.041,79.216 79.066,79.216 79.066,0 	"/>
	<rect x="157.029" y="316.178" fill="#617C8D" width="79.027" height="79.027"/>
	<rect x="157.839" y="158.151" fill="#617C8D" width="79.027" height="79.027"/>
</g>
</svg>
